<svg width="14" height="14" viewBox="0 0 14 14" fill="none" xmlns="http://www.w3.org/2000/svg">
<path d="M2.33276 8.16825V12.8332M2.33276 10.6766L4.64276 11.5778C6.11101 12.1507 6.84543 12.4377 7.3681 12.1157C7.89135 11.7937 7.89135 11.0552 7.89135 9.57817V4.67059M7.90476 1.74925V1.1665" stroke="#777777" stroke-linecap="round" stroke-linejoin="round"/>
<path d="M4.12891 4.67016H11.6679M5.45366 3.62308C5.07566 3.97599 5.00099 4.03141 4.89716 4.12766C4.82549 4.19719 4.77394 4.2848 4.74796 4.38122C4.72198 4.47764 4.72254 4.57928 4.74957 4.67541L5.94774 9.22424C5.98617 9.36987 6.06585 9.5013 6.1772 9.60272C6.28855 9.70413 6.42683 9.77122 6.57541 9.79591C7.44665 9.94691 8.33739 9.94671 9.20857 9.79533C9.49674 9.74458 9.72949 9.53283 9.80649 9.25166L11.0642 4.65966C11.1137 4.47824 11.0787 4.27874 10.9475 4.14341C10.8413 4.03258 10.7667 3.99233 10.3706 3.62308C9.93191 3.21299 9.51132 2.47333 9.33399 2.24874C9.15666 2.02416 9.02016 1.91391 8.79499 1.86316C8.21366 1.73246 7.61057 1.73246 7.02924 1.86316C6.80407 1.91391 6.68799 1.99733 6.49024 2.24816C6.29191 2.50016 5.89232 3.21299 5.45366 3.62308Z" stroke="#777777" stroke-linecap="round" stroke-linejoin="round"/>
</svg>
